<?xml version="1.0" encoding="utf-8"?>
<!-- Generator: Adobe Illustrator 22.1.0, SVG Export Plug-In . SVG Version: 6.00 Build 0)  -->
<svg version="1.1" xmlns="http://www.w3.org/2000/svg" xmlns:xlink="http://www.w3.org/1999/xlink" x="0px" y="0px"
	 viewBox="0 0 332.1 221.7" style="enable-background:new 0 0 332.1 221.7;" xml:space="preserve">
<style type="text/css">
	.st0{fill:#111111;}
	.st1{fill:none;stroke:#F00F76;stroke-width:2;stroke-miterlimit:10;}
	.st2{fill:#F00F76;}
</style>
<g id="Layer_2">
	<path class="st0" d="M153.8,46.7c-3.4-8.5-7.2-14.7-11.3-18.5c-4.9-4.5-10.3-9.2-16.7-11.2c-6.5-2-13.2-2.9-20-2.8
		c-0.3,0-1.4-0.1-3,0c-6.7,0.1-23.8,1.3-38.4,10.7l-1.6,1l0.5,48.6c4.8-0.6,9.6-1,14.4-0.9c1.1,0,2.3,0,3.4,0.1
		c2.9-0.3,5.7-0.6,8.6-0.8l-0.3-26.2l16.6-0.2c3.4-0.1,6.8,0.4,10.1,1.3c2.9,0.8,5.7,2.3,8,4.3c2.3,2.1,4.2,4.7,5.4,7.6
		c1.5,3.7,2.2,7.7,2.1,11.6c0,0.5,0,1,0,1.5c4,0.3,7.9,0.6,11.9,0.9c4.9,0.1,9.7,0,14.6-0.1c0-0.8,0-1.7,0-2.6
		C158,61.6,156.6,53.4,153.8,46.7z"/>
	<path class="st0" d="M65.1,135.8l-1.2-0.2l0.6,56.5l26.4-0.3l-0.6-55.1C81.9,137.4,73.4,137.1,65.1,135.8z"/>
	<path class="st0" d="M179.1,72.9c11.7,0,23.4,0.1,35.1,0.2l-12.8-23c-1.4-2.6-2.7-5.1-4-7.4c-1.1-2.2-2.5-4.2-4-6.2
		c-1.4-1.6-3-3-4.9-4c-2.1-1.1-4.4-1.6-6.8-1.5c-3.4,0.1-6.6,1.3-9.2,3.5c-2.8,2.2-4.9,5.3-6,8.7c-1.1,4-1.5,8.2-1.3,12.3l0.2,17.8
		C170.1,73,174.6,72.9,179.1,72.9z"/>
	<path class="st0" d="M273.1,73l-0.2-23.4c-0.1-6.3-1.3-11.1-3.7-14.4c-2.3-3.3-6.2-5.3-10.2-5.1c-4,0-7.8,2-9.9,5.4
		c-2.3,3.4-3.4,8.1-3.4,14.4l0.2,23.4C254.9,73.3,264,73.2,273.1,73z"/>
	<path class="st0" d="M173.8,133.7c-2.6,0.1-5.1,0.2-7.7,0.3l0.4,37.3c0.1,6.1,1.3,11,3.8,14.3c2.3,3.4,6.1,5.3,10.2,5.2
		c4,0,7.8-2,10-5.4c2.4-3.4,3.7-8.2,3.6-14.4l-0.4-37.5C187.1,133.4,180.5,133.5,173.8,133.7z"/>
	<path class="st0" d="M227.4,133.9c-3.6,0-7.2,0-10.8-0.1l20.5,37.4c1.4,2.4,2.8,4.7,4.1,7c1.3,2.3,2.9,4.4,4.7,6.3
		c1.6,1.8,3.6,3.2,5.8,4.2c2.2,0.9,4.5,1.3,6.9,1.3c7.1-0.1,15.5-4,15.4-22.2l-0.3-34.1C258.3,134,242.8,134,227.4,133.9z"/>
</g>
<g id="Layer_1">
	<title>powerNationLogo</title>
	<path class="st1" d="M114.3,76.7L114.3,76.7h0.2h1.7c0.8,0,1.7,0,2.8,0l0.5-0.1c2.2,0.1,3.4,0.2,3.4,0.3l0.2-0.1h0.5
		c3.4,0.1,6.8,0.8,10,2c3.1,1.8,4.6,3.1,4.6,4c0.3,0.3,0.4,0.7,0.4,1.1v0.5c-0.1,0.8-0.3,1.2-0.6,1.2l0.1,0.2v0.1h-0.4l0.1,0.2v0.1
		c-2.3,2.5-4,3.8-5.2,4c0,0.2-0.2,0.3-0.6,0.4c0,0.1-0.2,0.2-0.6,0.2v-0.1h-0.1V91c0.1,0,0.1,0,0.1,0.1c-0.2,0.1-0.4,0.2-0.6,0.2
		c-0.1-0.1-0.1-0.3-0.1-0.4h-0.1c-0.5,0.2-0.7,0.3-0.7,0.4c0.3,0,0.5,0.1,0.5,0.2l-0.2,0.1l-1.2-0.1l-0.1,0.2V92
		c0.2,0,0.4,0.1,0.4,0.2v0.1h-0.5c0-0.2,0-0.3-0.1-0.3c-0.3,0.1-0.5,0.2-0.5,0.3c0.1,0.1,0.1,0.3,0.1,0.4c-0.1,0-0.2-0.1-0.4-0.3
		c-0.8,0.1-1.6,0.4-2.3,0.9v0.1l-0.2-0.1h-0.2v0.2l-0.6-0.1c0,0.4-1,0.8-3.1,1.5c-0.8,0.5-1.7,0.9-2.6,1.1c0-0.1,0-0.1-0.1-0.1
		c0,0.3-0.1,0.4-0.2,0.4c-0.1-0.1-0.3-0.1-0.5-0.1c0,0.2-0.1,0.3-0.2,0.3h-0.1l-0.2-0.1c0,0.2-0.6,0.4-1.9,0.8
		c0,0.1-0.1,0.2-0.2,0.2h-0.1l-0.4-0.2h-0.2c0,0.2-0.3,0.4-0.8,0.8c0,0.1,0,0.1-0.1,0.1H113c0,0.3-0.7,0.6-2.3,0.9
		c-0.7,0.5-1.4,0.8-2.3,0.9c-0.7,0.4-1.4,0.7-2.1,0.8c-0.4,0.3-0.9,0.5-1.4,0.7c0,0.1-0.1,0.2-0.3,0.3h-0.8l-0.6,0.1l-0.1-0.2
		c0.9-0.6,1.8-1,2.9-1.2l2.9-1.3c0.1,0.1,0.2,0.1,0.4,0.1c0.1-0.1,0.2-0.1,0.3-0.1c0,0.1,0.1,0.2,0.2,0.2h0.1l-0.1-0.2
		c0.1-0.3,0.9-0.7,2.5-1.2c0-0.1,0.5-0.3,1.4-0.4c0.7-0.4,1.5-0.8,2.3-1c0.5-0.4,1.1-0.6,1.8-0.8c0-0.1,0.5-0.3,1.6-0.6
		c1.7-0.8,3.4-1.5,5.1-2.1l0.5,0.1l-0.1-0.2c1.9-1.1,3.9-2.2,5.9-3.1c0-0.1,0-0.1,0.1-0.1h0.6c0-0.3,0.3-0.6,0.9-0.8
		c1.1-0.7,2.2-1.6,3.2-2.5c0.9-0.8,1.4-2,1.5-3.2c-0.4-1.3-2.1-2.5-5.1-3.7l-3.5-0.9c-1.4-0.2-2-0.4-2-0.5V78h-0.2
		c0,0.1,0,0.3-0.1,0.4c-0.7-0.1-1.3-0.2-1.9-0.5c-0.2,0-0.2,0.1-0.2,0.2c-1.3,0-1.9-0.2-1.9-0.5h-0.2l-0.5,0.3c-0.2,0-0.3,0-0.5-0.1
		l-0.2,0.1c-0.1,0-0.2-0.1-0.4-0.1c-0.1,0.1-0.2,0.1-0.4,0.1c0-0.2-0.1-0.2-0.2-0.2h-0.3l-0.2,0.1c-0.1-0.1-0.1-0.2-0.1-0.3h-0.1
		l-0.4,0.2H118c-0.3,0-0.6-0.1-0.9-0.2l-0.8,0.2c0-0.1-0.2-0.2-0.6-0.4h-0.4c-0.2,0-0.3,0.2-0.4,0.6l-0.5-0.4c0,0.1,0,0.1-0.1,0.1
		c0-0.1-0.1-0.2-0.2-0.2c0,0,0,0-0.1,0h-0.1v0.6H113v-0.4c-0.2,0-0.2-0.1-0.3-0.3h-0.2c0,0.2-0.1,0.4-0.5,0.4c0,0.3-0.5,0.4-1.4,0.4
		v-0.1h0.2c-0.1-0.3-0.4-0.4-1-0.4V78h0.2v0.3c-0.3,0-0.6-0.1-0.9-0.3v0.5c-0.1,0-0.2-0.1-0.4-0.4c0.1,0,0.1,0,0.1-0.1h-0.1
		c-0.9,0.1-1.3,0.2-1.3,0.3s-0.2,0.2-0.6,0.2v0.1h0.5v0.2h-0.8l-0.5-0.4l-0.7,0.6l-0.4,0.2h-0.5v0l0.5-0.1l-0.1-0.6h-0.1
		c-0.2,0.1-0.4,0.2-0.6,0.2v0.2h0.2v0.1c-0.2,0-0.4,0-0.3,0.1c-0.4,0-0.8-0.1-1.2-0.3c-0.3,0.4-0.6,0.6-0.8,0.6v0.1h0.4
		c0.1-0.1,0.2-0.1,0.4-0.1c0,0.2-1.1,0.6-3.2,0.9v-0.2h0.2v-0.2h-0.5c0,0.3-0.3,0.5-0.8,0.6h-0.1c-0.2,0-0.2-0.1-0.2-0.2v-0.1h0.3
		c-0.1-0.1-0.1-0.2-0.1-0.3h-0.1c-0.1,0-0.3,0.2-0.6,0.5c0.1,0,0.1,0,0.1,0.1l-0.2,0.1c0-0.2-0.2-0.4-0.5-0.5v-0.1h-0.4
		c0.2,0.2,0.3,0.4,0.4,0.6h-0.2l-1.4,0.1l0.1,0.2v0.2h-0.1c-0.4-0.2-0.6-0.3-0.6-0.3c-0.3,0.2-0.5,0.3-0.8,0.3l0.1,0.2v0.1h-0.1
		l-0.2-0.1c0,0.3-0.4,0.4-1.3,0.4v-0.2h-0.5c0,0.4-0.5,0.7-1.5,0.8v0.1l-0.2-0.1l-0.2,0.1c0-0.1,0-0.1-0.1-0.1v0.3h-0.3v-0.2h-0.3
		c0,0.4-0.3,0.6-1,0.8c-0.2,0.1-0.5,0.2-0.7,0.2c0-0.1,0-0.1-0.1-0.1c-1.5,0.7-3,1.3-4.5,1.8c0,0.1-0.5,0.3-1.4,0.7
		c0-0.1,0-0.1-0.1-0.1c-1.2,0.8-2.5,1.4-3.9,1.9c0,0.1-0.2,0.3-0.7,0.4h-0.3c0,0.2-0.8,0.7-2.4,1.3c-2.1,1.3-3.8,2.3-5,3.2
		c-2.4,1.6-4.6,3.5-6.6,5.7c-0.8,0.2-1.6,0.6-2.3,1.1h-0.1c-0.2,0-0.2-0.1-0.2-0.3C60.6,96.8,64,93.8,70,90c0.8-0.3,1.6-0.8,2.3-1.3
		c4.3-2.3,8.7-4.3,13.3-5.9c1.1-0.3,2.2-0.7,3.2-1.1c1-0.2,2.7-0.7,5.1-1.5c0.2,0,1.4-0.3,3.6-0.8c0.1,0.1,0.2,0.1,0.4,0.1
		c0.4-0.3,2.7-0.8,6.9-1.5l2.4-0.4v0.1l0.2-0.1h0.2c0.1,0,0.1,0,0.1,0.1l1.9-0.5l0.2,0.1l0.6-0.1l0.2,0.1
		C111.9,77,113.1,76.8,114.3,76.7z M88.1,87.7h0.2c0.4,0.3,0.7,0.6,1,0.9v0.6c-2.7,4.7-6.1,10-10.3,15.9l-2.4,3.2
		c0,0.1-1.4,2.1-4.3,6c-1,1.5-2.1,2.9-3.3,4.2c-0.4,0.6-0.8,1.2-1.3,1.7c-0.7,1.1-1.5,2.2-2.4,3.1c-0.4,0.3-0.7,0.7-1,1.1
		c-0.3,0.4-0.7,0.6-1.2,0.9c-0.4,0.4-0.9,0.6-1.4,0.7h-0.5c-0.3,0-0.6-0.1-0.7-0.4c1.6-1,3.5-3,5.8-6.1l3.7-5.1
		c0.8-1.1,1.3-1.6,1.4-1.6l-0.1-0.2c1.2-1.4,2.3-2.9,3.3-4.5c1.5-1.8,4.3-5.9,8.6-12.5c1.6-2.4,3.2-4.8,4.5-7.4L88.1,87.7z
		 M82.7,109.2h0.4v0.2h-0.4L82.7,109.2z M83.8,108.8h0.1v0.3h-0.4V109C83.5,108.9,83.7,108.8,83.8,108.8L83.8,108.8z M93.4,105.3
		c0,0.5-0.6,0.9-1.9,1c0,0.2-0.6,0.4-1.8,0.6v0.1c0.1,0,0.1,0,0.1,0.1c-0.8,0.2-1.2,0.4-1.2,0.6h-0.8l0.1,0.2v0.1h-0.7v0.1h-0.6
		l-0.3,0.2c-0.2,0-0.2-0.1-0.3-0.2c0.5-0.3,1-0.5,1.6-0.7C87.8,107.1,89.7,106.4,93.4,105.3L93.4,105.3z M96.3,104.1h0.2
		c0.2,0,0.2,0.1,0.2,0.2v0.1l-0.1,0.2l-0.2-0.1h-0.1l-1.3,0.4c0,0,0,0.1-0.1,0.1c0,0,0,0,0,0h-0.4v-0.1c0-0.2,0.5-0.4,1.5-0.7
		C96,104.1,96.1,104,96.3,104.1C96.2,104,96.2,104,96.3,104.1L96.3,104.1z M98.8,103.3h0.1c0,0.1,0.1,0.2,0.1,0.3l-0.5,0.3h-0.2
		v-0.2h-0.1c0,0.1-0.2,0.2-0.6,0.2v0.1l0.1,0.2l-0.6,0.3l-0.1-0.2c0.1,0,0.1,0,0.1-0.1c-0.2,0-0.2-0.1-0.2-0.2
		C96.9,103.7,97.5,103.5,98.8,103.3L98.8,103.3z M99.8,102.8h0.2v0.4c0,0.1-0.1,0.2-0.3,0.3h-0.4c-0.2,0-0.2-0.1-0.2-0.2v-0.1
		C99.2,102.9,99.5,102.8,99.8,102.8L99.8,102.8z M98.8,79.7L98.8,79.7c0,0.3,0.1,0.3,0.2,0.3v-0.3L98.8,79.7z M100.7,79.1
		c0,0.2-0.3,0.4-1,0.4v0.1c0.2,0,0.3,0.1,0.5,0.2h0.7v-0.1l-0.1-0.2c0.2,0,0.2-0.1,0.2-0.2S101,79.1,100.7,79.1L100.7,79.1z
		 M102.7,101.8h0.2v0.2c-0.7,0.4-1.5,0.8-2.4,1l-0.1-0.2v-0.1C100.5,102.3,101.2,102,102.7,101.8L102.7,101.8z M103.1,79.2h0.4v0.2
		h-0.4L103.1,79.2z M108.9,100.5l0.1,0.2l-0.2,0.1l-0.1-0.2L108.9,100.5z M118.5,96.7h0.1v0.1c0,0.1-0.1,0.2-0.2,0.2h-0.1V97
		C118.2,96.8,118.3,96.7,118.5,96.7C118.5,96.7,118.5,96.7,118.5,96.7L118.5,96.7z M119.2,96.4h0.4v0.2h-0.4L119.2,96.4z
		 M121.3,95.4h0.3v0.2l-0.5,0.1l-0.1-0.2L121.3,95.4z M126.7,93.2l0.1,0.2c-0.4,0.3-0.9,0.4-1.4,0.5v-0.2L126.7,93.2z M129.4,91.8
		h0.4v0.2h-0.4V91.8z M130.9,90.5V91h0.3c-0.1-0.1-0.1-0.3-0.1-0.4L130.9,90.5z M131.4,90.3v0.2h0.5v-0.2L131.4,90.3z M133.8,88.8
		c0,0.2-0.1,0.3-0.5,0.3v0.2l0.2-0.1h0.1l0.2,0.1l0.1-0.2V89C134.1,88.8,134,88.7,133.8,88.8L133.8,88.8z"/>
	<path class="st1" d="M91.5,107.1h0.2c0.5,0,0.9,0.4,1.3,1.4c-0.1,1.4-0.7,2.6-1.6,3.6h-0.1l0.1,0.3c-0.1,0-0.2,0.1-0.3,0.4
		c0.1,0,0.2,0.1,0.3,0.4c-0.4,0.7-0.8,1.3-1.3,1.8H90l-0.2-0.1v0.4l-0.5-0.1c-0.6,0.5-0.9,0.9-0.9,1v0.3h0.1
		c0.6-0.4,0.8-0.7,0.8-0.9l0.2-0.1h0.1v0.3c-0.5,0.7-1,1.3-1.6,1.8h-0.2v-0.3h-0.3v0.1c0,0.2,0.1,0.3,0.3,0.3v0.1
		c0,0.2-0.1,0.3-0.2,0.3h-0.1l-0.4-0.4c-0.4,0.7-1,1.3-1.6,1.8v0.1h0.1c0.1,0,0.3-0.2,0.6-0.5h0.1c-0.3,0.5-0.7,1-1.1,1.4H85
		c0-0.1-0.1-0.3-0.1-0.4c-0.1,0.1-0.2,0.1-0.3,0.1v0.3h0.2v0.1c0,0.2-0.2,0.4-0.7,0.8h-0.3v-0.3c-0.1,0.1-0.3,0.1-0.4,0.1v0.4
		l0.3-0.3h0.1v0.4c-0.9,0.6-1.7,1.3-2.4,2.1c-0.7,0.3-1.4,0.8-2,1.3l-1.6,0.4c-1.8-0.3-2.7-1.1-2.7-2.6v-0.4c0-1.2,0.7-2.9,2.2-5.3
		c0-0.2,0.2-0.5,0.7-0.9c0-0.3,0.4-0.8,1.1-1.4c1-1.3,2.2-2.6,3.5-3.7c1.6-1,3-1.8,4.4-2.6c0.7-0.2,1.3-0.3,2-0.4h0.5
		c0.1,0,0.3,0.2,0.6,0.6v0.4c0,0.2-1,0.6-3.1,1.2c-2.4,1.3-4.5,3.1-6.3,5.2c-1.2,1.3-2.3,2.8-3.1,4.4c-0.5,1-0.9,2.1-1.1,3.3
		c0.1,0.4,0.2,0.6,0.3,0.6c1.3,0,3.2-1.1,5.7-3.4l4.4-4.5l0.6-0.4l-0.1-0.3l2.1-2.4l2.4-3.9l0.1-0.9c-0.4-0.2-0.8-0.5-1.1-0.9
		L91.5,107.1z M87.9,115.7v0.3h0.2c0.1,0,0.2-0.1,0.3-0.4h-0.2C88.1,115.6,87.9,115.7,87.9,115.7L87.9,115.7z M90.4,113.1l0.1,0.3
		v0.4c-0.3,0.2-0.6,0.4-0.8,0.7v0.3h0.2c0.1,0,0.5-0.5,1-1.4H91c0-0.2-0.1-0.3-0.2-0.3C90.7,113,90.6,113.1,90.4,113.1L90.4,113.1z
		 M92.7,110.7h0.1v0.1c-0.3,0.6-0.5,0.9-0.6,0.9h-0.1v-0.1C92.5,111,92.6,110.7,92.7,110.7L92.7,110.7z M92.9,109.5
		c0.1,0,0.2,0.1,0.2,0.2c0,0,0,0,0,0c0,0.2-0.1,0.3-0.2,0.3L92.9,109.5z"/>
	<path class="st1" d="M115.1,104.7c0,0.3,0.1,0.4,0.3,0.4c-0.1,0.6-0.4,1.2-0.8,1.7c-0.2,0.6-0.5,0.9-0.8,0.9v0.1l0.2,0.4
		c0,0.2-0.1,0.3-0.2,0.3s-0.2-0.1-0.2-0.4c-0.4,0-0.6,0.4-0.7,1.2c0.1,0.1,0.1,0.2,0.1,0.4c-0.1,0-0.4,0.4-0.8,1.2h-0.1v-0.1
		l0.2-0.4v-0.1H112c-0.2,0-0.3,0.3-0.4,0.9v0.1h0.1V111h0.2v0.4c-0.1,0-0.3,0.1-0.4,0.3c0-0.2-0.1-0.3-0.2-0.3h-0.1
		c-0.1,0-0.2,0.1-0.2,0.3v0.1h0.5v0.1c0,0.1-0.1,0.3-0.3,0.4h-0.1v-0.4h-0.2v0.4h0.2v0.3c-0.3,0.7-0.9,1.2-1.7,1.2v0.1h0.2
		c0,0.7-0.5,1.7-1.6,2.9c0,0.3-1.4,2.1-4.2,5.5c-0.9,1.3-2.1,2.3-3.5,2.9c-1.4-0.4-2.1-1.2-2.2-2.3c0.2-1.5,0.6-2.9,1.1-4.3
		c-2.4,2.6-4.1,4-5.1,4c-1.5-0.4-2.2-0.9-2.3-1.6c-0.1,0-0.1,0-0.1-0.1c0-2.1,0.9-4.8,2.8-8.3c1.9-3.9,3.1-6.1,3.6-6.6h0.3
		c0.1,0,0.1,0,0.1,0.1l0.2-0.1h0.1c0.4,0.2,0.6,0.4,0.6,0.5c-0.6,1.5-1.4,3-2.2,4.4c-0.7,1.6-1.4,3.1-2.2,4.6
		c-0.9,1.8-1.5,3.7-1.7,5.7h0.2c1.7-0.7,4-2.8,6.7-6.4c1.1-1.3,2.9-3.9,5.4-7.6c0.1,0,0.2-0.1,0.3-0.1c0.7,0.4,1.1,0.7,1.1,0.9v0.4
		c-1.4,1.8-2.7,3.8-3.7,5.9c-0.3,0-0.6,0.8-1.1,2.3c-0.1,0-0.4,0.6-0.8,1.7c-0.9,1.6-1.5,3.4-1.7,5.2c0.9,0,2.8-2,5.9-6.1l1.2-1.7
		c0.8-1.3,1.8-2.4,2.8-3.5c0.7-1.1,2.2-3.2,4.4-6.2c0.2,0,0.5-0.4,1-1.2L115.1,104.7z M110.1,112.6c0,0.2,0.1,0.3,0.2,0.3h0.2v-0.3
		L110.1,112.6z"/>
	<path class="st1" d="M117.7,113.1h0.3v0.1c-0.3,0.4-0.6,0.8-0.7,1.3h-0.6c0,0.3-0.1,0.6-0.3,0.8l-0.2-0.1c-0.2,0-0.4,0.4-0.7,1
		c-0.4,0.3-0.6,0.6-0.8,1v0.3l0.6-0.4l0.1,0.3c-0.3,0.7-0.6,1-0.7,1c-0.2,0.7-0.5,1.4-0.8,2.1c-0.1,0.5-0.2,0.9-0.2,1.4
		c0,0.8,0.7,1.1,2,1.1c2.3-0.2,4.6-0.8,6.7-1.7l0.9-0.3v0.4c0,0.2-0.1,0.3-0.2,0.3l-0.6-0.1c-0.4,0.3-0.5,0.6-0.5,0.8v0.1l-0.3-0.3
		h-0.1c0,0.4-1.1,0.9-3.4,1.6c0,0.3-0.3,0.4-0.8,0.4v-0.1h-0.4v0.1h0.2v0.3H117l-0.5-0.1c0,0.2-0.1,0.3-0.2,0.3h-0.1
		c-0.1,0-0.1,0-0.1-0.1s-0.1,0.1-0.1,0.1c-1.6,0-2.8-0.9-3.6-2.9c0-0.3,0-0.6-0.1-0.9c0-1,1.1-3.1,3.3-6.1c0.8-0.9,1.4-1.3,1.7-1.3
		c0,0.2,0.1,0.3,0.2,0.3h0.2l-0.2-0.4L117.7,113.1z M115.2,116.8h0.3v0.3h-0.3L115.2,116.8z M116.8,115.5v0.1c0,0.1-0.2,0.3-0.5,0.5
		h-0.1l-0.1-0.5h0.1c0.1,0,0.1,0,0.1,0.1C116.4,115.6,116.6,115.5,116.8,115.5L116.8,115.5z M117.6,114.5h0.2c0,0.1-0.2,0.3-0.5,0.7
		h-0.1V115C117.2,114.9,117.4,114.7,117.6,114.5L117.6,114.5z M125.1,107.7h0.2c1.1,0.3,1.8,1.3,1.7,2.4c-0.7,2.2-2.1,4-3.9,5.4
		c-0.7,0.7-1.6,1.1-2.5,1.4c-1,0-1.6-0.6-2.1-1.9c0-0.2,0.1-0.3,0.2-0.3c0.3,0.2,0.7,0.4,1.1,0.4c1.4,0,3.3-1.6,5.6-4.8l0.2-0.9
		v-0.1l-2.1,0.6v-0.3h-0.2c-0.5,0.4-0.7,0.6-0.7,0.8l-0.2-0.1h-0.3c-0.4,0.3-0.8,0.5-1.3,0.7c0,0.1-0.2,0.3-0.5,0.7
		c-0.1-0.1-0.3-0.1-0.4-0.1c0,0.1,0,0.3-0.1,0.4c0.1,0,0.1,0,0.1,0.1l-0.5,0.4h-0.6c0,0.2-0.1,0.5-0.2,0.6c-0.5-0.1-0.7-0.2-0.8-0.4
		c1.2-1.1,2-1.8,2.4-2.2c0.8-0.5,1.6-1,2.3-1.6c0.6-0.2,1.1-0.6,1.6-0.9L125.1,107.7z M118.1,114.1v0.4h-0.2v-0.1
		C117.9,114.2,117.9,114.1,118.1,114.1L118.1,114.1z M118.2,113.7c0.1,0.1,0.2,0.1,0.3,0.1c0,0.2-0.1,0.3-0.2,0.3h-0.2V114
		L118.2,113.7z M118.9,113.2h0.2c0,0.2-0.1,0.3-0.2,0.3h-0.2C118.7,113.2,118.8,113.1,118.9,113.2L118.9,113.2z M120.2,112.1
		l0.1,0.3l-0.3,0.3l-0.1-0.3L120.2,112.1z"/>
	<path class="st1" d="M143.3,106.5v0.4c-0.1,0-0.3,0.2-0.4,0.5c-0.1-0.1-0.2-0.1-0.3-0.1c0,0.3-0.3,0.5-0.8,0.7
		c0,0.3-0.1,0.4-0.2,0.4h-0.1v-0.2h-0.2l0.2,0.4c-0.9,0.5-1.7,1.2-2.4,2c-0.6,0-1.2,0.5-1.9,1.5v0.6c-0.1,0-0.2,0.1-0.4,0.3h-0.1
		v-0.1l0.2-0.4h-0.2c-0.1,0-0.2,0.1-0.3,0.4v0.3h0.2c-0.3,0.5-0.4,0.8-0.5,0.8l-0.5-0.1l0.1,0.3v0.4l-0.5,0.3l-0.5-0.1
		c0,0.1-0.3,0.6-1,1.3l0.2,0.1l0.3-0.3c0.1,0,0.2,0.1,0.2,0.3c-0.6,0.7-1,1.1-1.3,1.1v-0.3h-0.1c-0.1,0-0.2,0.1-0.2,0.3
		c0.1,0,0.2,0.1,0.3,0.4c-1.3,1.8-2.5,3.8-3.5,5.9c-0.2,0.9-0.4,1.3-0.6,1.3h-0.2c-0.7-0.5-1.1-0.9-1.1-1.1c0.5-1.5,1.1-2.8,1.9-4.2
		l2.4-5.1c1.5-3.3,2.4-5,2.5-5.1h0.2c0.2,0.4,0.4,0.7,0.8,1c-0.2,1-0.6,2-1.1,2.9v0.1C137.6,109.7,140.5,107.5,143.3,106.5z
		 M134.7,114.8h0.2v0.1c0,0.2-0.2,0.3-0.5,0.4v-0.1C134.4,115.1,134.5,115,134.7,114.8z M135.8,113.1v0.3h0.3
		C136.1,113.2,136,113.1,135.8,113.1L135.8,113.1z"/>
	<path class="st1" d="M191.3,68.4c0.9,0.1,1.3,0.2,1.3,0.4V69c-1.1,2-2.1,4.2-3.2,6.6c-0.2,0-0.6,1-1.1,3.1c-0.8,1.5-1.4,3-1.9,4.7
		c-0.4,0.8-0.7,1.2-0.8,1.2v0.1c0.1,0.1,0.1,0.2,0.1,0.4c-0.1,0-0.4,0.6-0.7,1.8l-0.4,0.3l0.1,0.2c-0.2,1-0.5,1.9-1.1,2.7h-0.1v-0.2
		h-0.1c-0.1,0-0.2,0.2-0.4,0.4c0,0.1,0.2,0.2,0.5,0.2c-0.3,0.5-0.6,0.8-0.8,0.8v0.6h0.2c-0.3,1.1-0.6,2.1-1,3.2
		c0,0.3-0.1,0.5-0.3,0.5v0.3c-0.4,1.4-0.8,2.2-1.2,2.2c-0.1,0-0.2,0.1-0.2,0.2h0.5v0.1c-0.1,0.4-0.3,0.8-0.6,1.2v-0.1
		c0-0.1,0.1-0.2,0.1-0.3h-0.1c-0.1,0.2-0.3,0.3-0.5,0.3v0.3l0.3-0.2c0.1,0,0.2,0.1,0.3,0.3v0.1l-1.1,3c-0.2,0.7-0.3,1.1-0.5,1.1
		h-0.1v-0.2h-0.3v0.1c0,0.1,0.1,0.2,0.3,0.3c0,0.3-0.1,0.6-0.4,0.7v0.3h-0.3c0.1,0.1,0.1,0.2,0.1,0.3c-0.1,0.4-0.3,0.6-0.5,0.6v0.4
		l0.3-0.2c0.1,0.1,0.1,0.2,0.1,0.3c-0.7,2.2-1.2,3.3-1.5,3.4h-0.2v1c0,0.1-0.2,0.6-0.5,1.6v0.1h-0.1c-0.1,0-0.2-0.1-0.2-0.3
		c-0.3,0.2-0.5,0.3-0.5,0.4c0.5,0.1,0.7,0.2,0.7,0.3c0,0.1-0.4,1.3-1.3,3.5H174l0.2,0.3c0,0.1,0,0.1-0.1,0.1l0.1,0.2
		c-0.2,0.7-0.5,1.1-0.7,1.1h-0.2l0.3,0.4c-0.3,1-0.5,1.5-0.8,1.5c-0.1-0.3-0.1-0.5-0.1-0.6h-0.2c0,0.3-0.1,0.5-0.1,0.8l0.2-0.1
		c0.1,0.1,0.3,0.1,0.4,0.1v0.2c0,0.1-0.1,0.2-0.3,0.3c0,0.1,0,0.1,0.1,0.1c0,0.4-0.1,0.8-0.5,1c0-0.1-0.1-0.2-0.2-0.2H172
		c0,0.1-0.1,0.3-0.2,0.3c0,0-0.1,0-0.1,0v0.3c0.2,0,0.3,0,0.3,0.1c-0.1,0.1-0.1,0.2-0.1,0.3l0.2,0.1c0,0.5-0.2,0.8-0.5,0.8v0.4
		c-0.4,1-0.6,2-0.9,3h-0.1l-0.2-0.1l0.1,0.5c-0.2,0.5-0.4,0.7-0.5,0.7l0.1,0.5l-1,2.5c-0.5,2-1,4-1.7,6c-0.4,1.3-0.7,2.6-0.9,3.9
		l0.2,0.1c1.3-1.7,2.5-3.6,3.4-5.6c0.6-0.8,1.2-1.7,1.6-2.7c1.1-1.7,2.1-3.5,3-5.4c0.8-1.2,1.5-2.5,2.2-3.8c0.7-0.9,1.3-1.9,1.8-3
		l1.9-2.7c0-0.3,0.1-0.5,0.3-0.7c0-0.3,1-1.9,2.9-4.8c1.1-1.9,2.3-3.7,3.5-5.4c0-0.3,0.4-0.9,1.1-1.7l2.6-4l0.8-1.1
		c0.1,0,0.3-0.4,0.7-1.2c0.4-0.5,0.7-0.7,0.8-0.7l-0.1-0.2l2-3c0.3-0.5,0.7-1,1.1-1.4c0.2-0.5,0.6-0.8,1-1.1c0-0.3,0.1-0.5,0.2-0.5
		h0.1c0.1,0,0.2,0.1,0.2,0.2c-0.8,1.4-1.3,2.1-1.5,2.1l-0.5,0.8l0.1,0.2v0.1c0,0.2-0.1,0.2-0.2,0.2h-0.2c0,0.1-0.1,0.1-0.2,0.1v0.1
		l0.1,0.5c-0.5,0.6-0.8,0.9-0.9,0.9l0.1,0.2v0.3c-0.1,0-0.3,0.2-0.6,0.7v-0.3c-0.4,0.1-0.6,0.2-0.6,0.3l0.3,0.2h0.1l0.2-0.1v0.1
		c-0.1,0.1-0.2,0.3-0.3,0.5H193v0.2c0.2,0,0.3,0.1,0.3,0.2l-0.5,0.9c-0.1,0-0.2,0-0.3,0.1l0.1,0.2c-0.4,0.5-0.6,0.8-0.7,0.8
		l-0.5-0.1l-0.1,0.2c0.2,0.1,0.4,0.1,0.6,0.1c-0.3,0.6-0.5,0.9-0.6,0.9c-0.1-0.1-0.3-0.1-0.4-0.1v0.2c0.1,0,0.2,0,0.2,0.1
		c-0.2,0.4-0.4,0.7-0.7,1c0,0.3-0.2,0.5-0.6,0.6l-0.1,0.2c0.1,0,0.2,0.1,0.2,0.2v0.5c-0.3,0.1-0.6,0.3-0.9,0.5H189l0.1,0.2
		c0,0.1-0.1,0.2-0.4,0.2l0.2,0.3v0.1c-0.5,0.3-0.8,0.6-0.8,0.9H188v0.1l0.2,0.3c0,0.1-0.1,0.2-0.3,0.3h-0.1v-0.3l-0.2,0.1
		c0.1,0.1,0.1,0.2,0.1,0.3c-0.3,0.6-0.7,1.2-1.2,1.7c0,0.4-0.1,0.6-0.4,0.6l0.1,0.2l-1,1.5c0-0.1,0-0.1-0.1-0.1
		c-0.1,0.3-0.2,0.5-0.4,0.5v0.3c-0.2,0.7-0.6,1.5-1.1,2.1c-0.3,0.6-0.6,1.1-1,1.6c-0.1,0-0.1,0-0.1-0.1c-0.1,0.1-0.3,0.1-0.4,0.1
		v0.1c0.1,0.1,0.2,0.2,0.2,0.4c-0.5,1.1-1.2,2.2-2,3.1c-0.3,1-0.8,2-1.5,2.8c-0.1,0.3-0.3,0.6-0.5,0.9c-0.3,0.5-0.6,0.9-1,1.2h-0.1
		l0.1,0.5c-0.1,0.1-0.2,0.2-0.4,0.2l0.1,0.5c-1.4,2-2.6,4.2-3.6,6.4c-0.6,0.9-1.2,1.9-1.6,2.9l-1.4,2.3c-1.8,3.1-3.1,4.7-4,4.7
		s-1.4-0.3-1.4-1c0.1-1.7,0.5-3.3,1.1-4.9c0.1-0.8,0.3-1.6,0.7-2.4c0.6-2.1,1.3-4,1.9-5.6c0.2-1,0.5-2,0.9-2.9
		c0.3-1,0.6-1.9,1.1-2.9c0.1-0.7,0.3-1.3,0.7-1.9l1.7-5.3l0.5-1c0-0.1-0.1-0.2-0.1-0.3c0.2,0,0.5-1.1,1.1-3.2
		c0.4-0.8,0.7-1.6,0.9-2.5c0.1,0,0.2-0.1,0.3-0.4c-0.1-0.1-0.1-0.2-0.1-0.3c0.6-1.1,1-2.2,1.3-3.4c0.4-0.7,0.6-1.5,0.8-2.3
		c0.1,0,0.2-0.4,0.4-1c0.2,0,0.4-0.5,0.6-1.6l0.7-1.3l-0.1-0.2l2-5.8c1.3-3.5,2-5.3,2.2-5.3l0-0.1c0.5-1.5,1.1-2.9,1.8-4.3v-0.3
		c0-0.1-0.1-0.2-0.3-0.2l0.1-0.2V82h-0.1c-0.1,0-0.2,0.1-0.3,0.3c0.1,0.1,0.2,0.3,0.2,0.5l-0.4,0.2l0.1,0.2v0.1
		c-0.4,0-0.5,0.3-0.5,0.9c-0.3,0.1-0.5,0.4-0.5,0.8l-0.2-0.1h-0.1c-0.1,0.3-0.3,0.6-0.5,0.9c-0.3,0.8-0.7,1.6-1.3,2.2l0.1,0.2
		c0,0.4-0.2,0.7-0.6,0.9l0.1,0.2v0.1c-0.4,0-0.6,0.2-0.6,0.5c-0.1,0.3-0.3,0.6-0.5,0.8l0.1,0.2c-0.2,0.1-0.4,0.4-0.8,1.2
		c0,0.1,0.1,0.2,0.1,0.3c-0.7,1-1.1,1.5-1.4,1.5c-0.2,0.7-0.4,1.4-0.9,2.1h-0.1l-0.2-0.1l-0.1,0.2c0.2,0,0.3,0.1,0.3,0.2
		c-0.3,0.7-0.6,1-0.8,1c0.1,0.1,0.1,0.2,0.1,0.3c-0.2,0.5-0.4,0.8-0.8,0.8l0.2,0.3v0.1c-0.3,0.6-0.6,1.2-1.1,1.8h-0.1l-0.2-0.1v0.2
		h0.2v0.1c-0.3,0.6-0.7,1.1-1.3,1.4c-0.2,0.6-0.4,1.1-0.8,1.6c-0.7,1.7-1.3,2.6-1.8,2.7l0.1,0.2v0.1c-0.1,0-0.3,0.3-0.5,0.8h-0.1
		l0.1,0.2c-0.7,1-1.4,2-2.1,3c0.1,0,0.1,0,0.1,0.1l-0.8,1.2l-1.7,2.8l-1.1,1.4h-0.1l0.1,0.2l-2.7,3.9c-1.9,2.2-3.2,3.4-4,3.5
		c-0.3,0.1-0.6,0.1-0.9,0.1c-1.7-0.1-3-1.6-2.9-3.3c0,0,0-0.1,0-0.1v-0.9c-0.1-4.1,1.5-9.3,4.7-15.3c1.4-2.7,3.2-5.3,5.1-7.7
		c1-1.4,2.5-2.3,4.2-2.5c1.2,0,1.8,0.6,1.9,2c0.1,2.1-0.7,4.1-2,5.6l-0.2,0.1c-0.1,0-0.2-0.1-0.2-0.2v-0.1c0.6-1.8,1-3.6,1.1-5.4
		c-0.1-0.8-0.3-1.3-0.5-1.2c-1.4,0-3.2,1.8-5.5,5.3c-0.9,1-1.6,2.2-2.2,3.4c-0.9,1.3-1.6,2.8-2.2,4.3c-0.4,0.7-0.7,1.4-0.9,2.2
		c-0.4,0.8-0.7,1.6-0.9,2.4h-0.2l0.1,0.2c-0.1,0.8-0.3,1.6-0.7,2.4l0.1,0.2c-0.2,0.4-0.3,0.8-0.3,1.2h-0.1c0.1,0.1,0.1,0.2,0.1,0.3
		c-0.1,0.7-0.2,1.5-0.2,2.3v0.7c0,1.8,0.5,2.8,1.4,3.3h0.1c0.9,0,2.8-1.8,5.5-5.3c0-0.2,0.4-0.8,1.2-1.7c0.4-0.8,1-1.5,1.6-2.2
		c0.8-1.5,1.8-2.9,2.8-4.3c0.3-0.9,0.8-1.7,1.4-2.4l1.4-2.4l2-3.3c1-1.4,1.8-2.9,2.5-4.5c0.6-0.8,1.2-1.6,1.6-2.5
		c0.4-0.9,0.9-1.8,1.5-2.6c0.2-0.6,0.5-1.1,0.9-1.6c1-1.9,2-3.8,3.2-5.6c0.3-0.8,0.7-1.5,1.2-2.2c0.5-1.2,1.1-2.4,1.8-3.4
		c0.4-0.6,0.8-1.3,1-2c1-1.5,1.9-3,2.6-4.6c0.7-1.3,1.3-2.6,1.9-4C191.2,68.5,191.3,68.5,191.3,68.4z"/>
	<path class="st1" d="M208.1,105h0.1l0.9,1.1v0.2c-0.6,0.8-1.2,1.6-1.9,2.2c-0.1,0.2-0.1,0.4-0.1,0.6h-0.3l-0.3-0.2
		c0,0.1-0.1,0.2-0.1,0.2l0.1,0.3v0.2c-0.2,0-0.4,0.1-0.5,0.3l-0.2-0.2c0,0.3-0.3,0.5-0.8,0.5v0.2c0,0.2,0.1,0.3,0.3,0.3
		c0.1-0.1,0.2-0.1,0.4-0.2v0.2c0,0.1-0.1,0.3-0.4,0.5c0-0.2-0.1-0.3-0.3-0.3h-0.3c0,0.2-0.3,0.5-0.9,0.9c-0.4,0.7-1,1.3-1.5,1.9
		c0.1,0,0.1,0,0.1,0.2c-0.4,0.2-0.7,0.6-0.6,1.1l0.1,0.8c-0.1-0.2-0.3-0.3-0.5-0.3c-0.3,0-0.8,0.7-1.4,1.9l-0.9,1
		c0.1,0,0.3,0.1,0.3,0.3c0,0,0,0,0,0c-0.5,0.7-0.9,1.5-1.1,2.4c-0.1,0-0.2,0.3-0.5,0.8v1.3c0.2,0.2,0.3,0.5,0.4,0.8
		c-0.1,0.4-0.3,0.6-0.4,0.6h-0.1c-0.6-0.2-0.9-0.8-0.9-1.4v-0.5c0-1.1,0.6-2.7,1.9-4.8c0.3-0.6,0.8-1.6,1.8-3.2v-0.3h-0.2l-0.4,0.3
		h-0.1l-0.4-0.3c0,0.1,0,0.1-0.1,0.1l0.1,0.3v0.2c-0.3,0-0.5,0.1-0.8,0.2c-0.1-0.1-0.2-0.1-0.4-0.2c-1.9,2.4-3.1,3.6-3.4,3.7v0.2
		l-0.3-0.2h-0.1v0.2h0.2c-2.7,2.6-4.5,3.9-5.4,3.9H189c-1.6-0.3-2.4-1.1-2.4-2.4c0-2.4,2.4-6,7.4-10.9c2.5-2.2,4.2-3.3,5.1-3.3h0.3
		c1.3,0.1,2.6,0.5,3.8,1.1c-3.3,0.6-6.4,2.1-9,4.2c-0.7,0.9-1.5,1.7-2.4,2.4c-2.4,3.3-3.6,5.5-3.6,6.6c0.1,0.1,0.1,0.3,0.1,0.4
		c0.9,0,2.8-1,5.5-3.1l6.2-5.5l3.5-3.2C206.2,106.4,207.7,105,208.1,105z M199.8,114.1v0.2h0.5c0.2,0,0.3-0.1,0.3-0.3v-0.3h-0.1
		C200.1,114,199.9,114.1,199.8,114.1z M200.8,112.4v0.9l0.9,0.1l0.1-0.3v-0.6C201.2,112.5,200.9,112.4,200.8,112.4L200.8,112.4z
		 M200.8,114.1v0.2h0.4c0-0.2,0-0.3,0.1-0.5h-0.2C200.9,113.8,200.8,113.9,200.8,114.1C200.8,114.1,200.8,114.1,200.8,114.1
		L200.8,114.1z"/>
	<path class="st1" d="M231.6,80.1h0.2c0.8,0.3,1.1,0.6,1.1,0.7l-3.9,6.4l-3.9,6.4c-0.5,0.6-0.9,1.2-1.2,1.8c-0.7,1-1.4,2-2,3.1
		c-0.7,1.1-1.4,2.2-2.2,3.2v0.1c0.6,0.1,1.2,0.2,1.8,0.1l0.2-0.1c0.1,0.1,0.3,0.1,0.5,0.1l1.4-0.2c0.1,0,0.2,0,0.4,0.1l0.2-0.1
		c0.5,0.1,0.9,0.1,1.2,0.1l0.2-0.1c0.1,0,0.2,0.1,0.3,0.1l0.8-0.1v0.1c0.1,0,0.1,0,0.1-0.1l0.7,0.1c0.1,0,0.6,0,1.4-0.1
		c0.1,0,0.2,0,0.3,0.1c0.5-0.1,0.9-0.1,1.2-0.1h1.2c0.2,0,0.3,0,0.5-0.1c0.2,0,0.6,0.1,1.5,0.1c0.4-0.1,0.9-0.1,1.3-0.1
		c0.2,0,0.6,0,1.2,0.1l0.2-0.1c0.3,0,0.6,0.1,0.9,0.1c0.1,0,0.5,0,1.1-0.1v0.1c0.1-0.1,0.2-0.1,0.3-0.1c0.2,0,0.6,0,1.2,0.1
		c0.1,0,0.1,0,0.1-0.1l0.8,0.1h2.1l0.7,0.1l0.2-0.1c0.4,0,0.8,0.1,1.2,0.1h0.5l0.5-0.1l0.1,0.2l0.2-0.1c0.4,0,0.6,0.1,0.7,0.1
		l0.9-0.1l0.2,0.1c0.1,0,0.3-0.1,0.4-0.1c0.1,0,0.1,0,0.1,0.1l0.5-0.1h1.5l0.6-0.1c1.8,0.1,2.8,0.1,2.9,0.2l0.5-0.1c1,0,2,0,2.9,0.1
		l0.2-0.1l0.6,0.1l0.2-0.1h0.8l0.2-0.1l0.2,0.1c0.1,0,0.1,0,0.1-0.1c1,0,1.5,0.1,1.5,0.2l0.2-0.1h0.4h0.5c0-0.1,0.1-0.2,0.2-0.2h0.1
		c0.3,0.1,0.7,0.2,1,0.2c0-0.1,0.1-0.2,0.2-0.2c0,0.1,0.1,0.1,0.2,0.1l0.7-0.1c0.5,0,0.9,0.1,1.4,0.2c0.1-0.1,0.3-0.1,0.4-0.1h0.1
		c0.1,0,0.2,0.1,0.2,0.1c0.1,0,0.1,0,0.1-0.1h0.8h0.8c0.1,0,0.1,0,0.1,0.1c0,0,0,0,0,0l0.2-0.1c0.3,0.1,0.6,0.1,0.9,0.1v-0.2
		c0.6,0.2,1.2,0.3,1.8,0.3v0.5l-0.1,0.2c-0.6,0-0.9-0.1-0.9-0.2l-0.2,0.1h-0.1c-0.2,0-0.2-0.1-0.3-0.2h-0.3l0.1,0.2l-0.3,0.2h-0.5
		c-0.2,0-0.2-0.1-0.2-0.2c-0.1,0-0.1,0-0.1,0.1h-0.8l-1.3,0.1c-0.4,0-0.6-0.1-0.6-0.1l-0.6,0.1h-0.2c-0.2,0-0.3,0-0.5-0.1
		c-0.4,0.1-0.7,0.2-1.1,0.3c0-0.1-0.1-0.2-0.2-0.2c-0.2,0-0.3,0-0.5,0.1l-1.1-0.4l-0.2,0.1h-0.3v0.2c-0.2-0.1-0.4-0.2-0.7-0.1
		c0,0.2-0.9,0.3-2.6,0.4c-0.3-0.1-0.5-0.1-0.5-0.2l-0.5,0.1h-0.2c-0.1-0.2-0.4-0.2-0.9-0.2c0,0.1-0.1,0.2-0.2,0.2c0,0,0,0,0,0h-0.6
		c-0.1,0-0.1,0-0.1-0.1l-0.2,0.1l-0.7-0.1l-0.7,0.1c-0.3,0-0.6-0.1-0.9-0.1l-0.2,0.1c-0.2-0.1-0.5-0.2-0.7-0.3v0.3h-0.2l0.1-0.2
		h-0.2v0.2h-0.3l-0.6-0.1c0,0.1-0.1,0.2-0.5,0.3c0,0-0.1-0.1-0.5-0.2l-0.2,0.1h-1.1l-0.2-0.1l-0.1,0.2l-2.1-0.1l-0.5,0.1
		c-1.5,0-2.4-0.1-2.8-0.1l-0.2,0.1c-0.6,0-1.2,0-1.8-0.1c-0.3,0.1-0.5,0.1-0.8,0.1c-0.4,0-0.8,0-1.3-0.1c-0.6,0.1-0.9,0.1-1.1,0.2
		H237h-0.7c-0.1,0-0.1,0-0.1-0.1s-0.1,0-0.1,0.1l-0.6-0.1c-0.5,0-1,0.1-1.5,0.1c-0.6-0.1-1.2-0.1-1.8-0.1v-0.2h-0.2
		c0,0.1-0.1,0.2-0.1,0.3l-0.5-0.1l-1.5,0.1c0-0.1-0.1-0.2-0.4-0.2c0,0.1-0.1,0.2-0.3,0.3s-0.2,0-0.2-0.1l0.1-0.2h-0.1
		c-0.3,0-0.5,0.1-0.8,0.2H228c-0.1,0-0.1,0-0.1-0.1l-0.2,0.1h-1.9v-0.2h0.7l-0.1-0.2l-0.8,0.1H225v0.2h-0.5c-0.1,0-0.1,0-0.1-0.1
		l-0.2,0.1c-0.1,0-0.2-0.1-0.3-0.1l-0.1,0.2l-0.6-0.1h-2c-0.2-0.1-0.4-0.2-0.6-0.3H220c-0.4,0.1-0.6,0.1-0.6,0.3l0.6-0.1h0.3v0.3
		h-0.4c-0.9,0-1.3,0.2-1.3,0.6c-0.4,0.7-0.9,1.4-1.4,2.1c-0.3,0.5-0.6,1-1,1.4c-0.4,1-0.8,1.5-1.1,1.5c-0.1,0-0.2-0.1-0.3-0.1v0.2
		c0.2,0,0.3,0,0.3,0.2c-0.5,0.9-1.1,1.8-1.7,2.7c0,0.2-0.3,0.7-1,1.5c-0.1,0.4-0.3,0.8-0.6,1.1h-0.1v0.4l-0.6,0.6
		c0.1,0,0.1,0,0.1,0.1c0,0,0,0,0,0c-0.5,0.6-0.9,1.3-1.3,2c-0.3,0.7-0.7,1.3-1.3,1.7l-0.2-0.1v0.4c0.2,0,0.4,0,0.4,0.1l-0.4,0.2
		l0.1,0.2v0.1h-0.4v0.2c0.1,0.1,0.2,0.2,0.2,0.3c-0.1,0.3-0.3,0.4-0.4,0.4l-0.2-0.1c-0.5,0.6-0.8,1.2-1.1,1.9l-0.9,0.3l-0.1-0.1
		v-0.2h0.6v-0.1l-0.2-0.2v-0.2c0.5-1.2,1.2-2.3,1.8-3.4c0.7-1.5,1.5-3,2.5-4.3c0.4-0.7,0.7-1,0.9-1l-0.1-0.1v-0.1
		c0.5-0.4,0.9-1,1.1-1.7c0.1,0,0.3-0.2,0.3-0.7c1.1-1.4,2-2.9,2.8-4.4c0.1,0,0.5-0.3,1-1c0.4-0.7,0.8-1.4,1.1-2.1h-0.1
		c-0.3,0-0.5,0-0.8,0.1c-0.3,0-0.7,0-1,0h-0.5c-0.6,0-1.2,0-1.8,0.1l-0.8-0.1c-2.7,0.1-4.4,0.2-5.3,0.3l-0.2-0.1l-0.6,0.1h-0.4
		c-0.2,0-0.3,0-0.3-0.1l-0.6,0.1h-0.8l-0.7-0.1c-0.1,0.1-0.2,0.1-0.3,0.1v-0.1c-0.1,0-0.1,0-0.1,0.1l-0.6-0.1h-1.6
		c-2.6,0.1-3.9-0.3-4-1.1c-0.1,0-0.2-0.2-0.2-0.6c2.2-0.8,4.6-1.7,7.4-2.5c1.2-0.3,2.5-0.6,3.7-1c0.1,0,0.1,0,0.1,0.1
		c2.8-0.9,5.6-1.6,8.5-2.1h0.2c0.5,0.3,0.8,0.7,0.8,1c-3.7,0.7-8.2,1.9-13.6,3.4c-2.9,1-4.3,1.4-4.4,1.4v0.1
		c1.4,0.1,2.9,0.2,4.4,0.1h0.9c0.2,0,0.3,0,0.4,0.1c0.1-0.1,0.3-0.1,0.4-0.1c0.2,0,0.2,0,0.2,0.1l0.6-0.1l3.1-0.1
		c0.4,0,0.8-0.1,1.2-0.1c0.1,0,0.1,0,0.1,0.1c0,0,0,0,0,0l0.8-0.1h1c0.2,0,0.3,0,0.5,0.1c0.1,0,0.1,0,0.1-0.1c0.2,0,0.4,0.1,0.7,0.1
		l1.8-0.1l0.8,0.1c1.3,0,1.9-0.2,1.9-0.6c0.9-1.1,1.7-2.3,2.4-3.5c0.3-0.4,0.6-0.8,0.8-1.3c0.3,0,0.5-0.4,0.9-1.3
		c0.6-0.8,1.1-1.6,1.5-2.5c0.2-0.1,0.6-0.7,1.2-1.9c0.6-0.9,1.1-1.7,1.6-2.7c0.1,0,0.4-0.5,0.9-1.5c0.1-0.1,1.3-2,3.3-5.6
		C231.1,80.5,231.4,80.1,231.6,80.1z M215.8,102.8v0.1h0.4v-0.1H215.8z M223.4,102.6L223.4,102.6l0.5,0.1v-0.1H223.4z M229.9,102.4
		L229.9,102.4l0.5,0.1l-0.1-0.2C230.1,102.4,230,102.4,229.9,102.4L229.9,102.4z M235,102.3L235,102.3l0.5,0.1v-0.1H235z M244,102.2
		v0.1h0.7v-0.1L244,102.2z M258.1,102.2L258.1,102.2l0.6,0.1v-0.2C258.4,102.1,258.3,102.1,258.1,102.2L258.1,102.2z M261.9,102.3
		h0.2l0.5,0.1v0.2h-0.8L261.9,102.3z M269.5,102.3c0,0.1,0.1,0.2,0.2,0.2l0.1-0.2L269.5,102.3z"/>
	<path class="st1" d="M225.1,103c0.6,0.6,1,1,1,1.3c-0.7,2-2.7,5.6-6,10.9c-1.4,2.4-2.2,3.7-2.3,3.7c-0.4,0-1,1-2,2.9
		c0.3,0,0.4,0.1,0.4,0.3l-0.2,0.1c-0.1-0.1-0.3-0.1-0.4-0.1c-0.1,0.3-0.3,0.4-0.6,0.4h-0.1v-0.3c0-0.7,1.4-3.4,4.3-8.3
		c2.5-4.2,3.8-6.5,3.8-6.8c0.7-1.3,1.3-2.6,1.9-4L225.1,103z M216.5,120.8h0.2v0.1c-0.1,0.4-0.3,0.6-0.4,0.7v-0.3
		C216.4,121.2,216.4,121,216.5,120.8z M217.5,119.1l0.1,0.3c-0.1,0.5-0.4,1-0.8,1.3h-0.1v-0.1c0.2-0.6,0.4-0.9,0.6-0.9
		C217.3,119.3,217.3,119.1,217.5,119.1L217.5,119.1z M217.6,118.3v0.3h0.1c0.1-0.1,0.3-0.3,0.4-0.6h-0.2
		C217.8,118,217.7,118.1,217.6,118.3L217.6,118.3z M218.8,116.2h0.1c0.1-0.1,0.2-0.1,0.3-0.1v-0.3
		C218.9,116,218.8,116.1,218.8,116.2L218.8,116.2z M227.5,93.6l0.9,1h0.1l0.9-0.7h0.2c0.2,0,0.3,0.2,0.3,0.5c0,1.1-0.7,2.1-1.7,2.5
		h-0.7c-0.5-0.4-0.9-1-1-1.7v-0.7C226.7,94,227.1,93.7,227.5,93.6L227.5,93.6z"/>
	<path class="st1" d="M241,103.5h0.2c0.5,0,0.9,0.4,1.3,1.4c-0.1,1.4-0.7,2.6-1.6,3.6h-0.1l0.1,0.3c-0.1,0-0.2,0.1-0.3,0.4
		c0.1,0,0.2,0.1,0.3,0.4c-0.4,0.7-0.8,1.3-1.3,1.8h-0.1l-0.2-0.1v0.4l-0.5-0.1c-0.6,0.5-0.9,0.9-0.9,1.1v0.3h0.1
		c0.5-0.4,0.8-0.7,0.8-0.9l0.2-0.1h0.1v0.3c-0.5,0.7-1,1.3-1.6,1.9h-0.2v-0.3h-0.3v0.1c0,0.2,0.1,0.3,0.3,0.3v0.1
		c0,0.2-0.1,0.3-0.2,0.3h-0.1l-0.4-0.4c-0.4,0.7-1,1.3-1.5,1.8v0.1h0.1c0.1,0,0.3-0.2,0.6-0.5h0.1c-0.3,0.5-0.7,1-1.1,1.4h-0.1
		c0-0.1-0.1-0.3-0.1-0.4c-0.1,0.1-0.2,0.1-0.3,0.1v0.3h0.2v0.1c0,0.1-0.2,0.4-0.7,0.8h-0.3v-0.3c-0.1,0.1-0.3,0.1-0.4,0.1v0.4
		l0.3-0.3h0.1v0.4c-0.9,0.6-1.7,1.3-2.4,2.1c-0.7,0.3-1.4,0.8-2,1.3l-1.6,0.4c-1.8-0.3-2.7-1.1-2.7-2.6v-0.4c0-1.1,0.7-2.9,2.2-5.3
		c0-0.2,0.2-0.5,0.7-0.9c0-0.3,0.4-0.8,1.1-1.4c0-0.2,1.2-1.4,3.5-3.7c1.6-1,3-1.8,4.4-2.6c0.7-0.2,1.3-0.3,2-0.4h0.5
		c0.1,0,0.3,0.2,0.5,0.6v0.4c0,0.2-1,0.6-3.1,1.2c-2.4,1.3-4.5,3.1-6.3,5.2c-1.2,1.3-2.3,2.8-3.1,4.4c-0.5,1-0.9,2.1-1.1,3.2
		c0.1,0.4,0.2,0.6,0.3,0.6c1.2,0,3.2-1.1,5.7-3.4l4.4-4.5l0.6-0.4L237,112l2.1-2.4l2.4-3.9l0.1-0.9c-0.4-0.2-0.8-0.5-1.1-0.9
		L241,103.5z M237.4,112.1v0.3h0.2c0.1,0,0.2-0.1,0.3-0.4h-0.2C237.6,112,237.5,112,237.4,112.1z M240,109.4l0.1,0.3v0.4
		c-0.1,0-0.4,0.2-0.8,0.7v0.3h0.2c0.1,0,0.5-0.5,1-1.4h0.1c0-0.2-0.1-0.3-0.2-0.3C240.2,109.4,240.1,109.4,240,109.4L240,109.4z
		 M242.3,107.1h0.1v0.1c-0.3,0.6-0.5,0.9-0.6,0.9h-0.1V108C242,107.4,242.2,107.1,242.3,107.1z M242.4,105.9c0.1,0,0.2,0.1,0.2,0.2
		c0,0,0,0,0,0c0,0.2-0.1,0.3-0.2,0.3L242.4,105.9z"/>
	<path class="st1" d="M258.1,102.3c1.3,0.4,1.9,1,1.9,1.9c-0.2,1.6-0.4,2.5-0.7,2.5l0.1,0.3c-0.2,1.1-0.6,2.2-1.2,3.2
		c-0.3,0.3-0.4,0.7-0.5,1.2h-0.1l-0.3-0.3v0.1l0.1,0.8c-0.5,0.8-0.7,1.2-0.8,1.2c-0.1-0.1-0.3-0.1-0.4-0.1v0.6l0.3-0.3l0.1,0.3
		c-0.2,0-0.3,0.3-0.4,0.9c-0.2,0-0.3,0.2-0.3,0.5h-0.6v0.3c0.3,0,0.4,0,0.4,0.1c-0.2,0.2-0.3,0.5-0.3,0.8h-0.1c-0.1,0-0.1,0-0.1-0.1
		c-0.4,0.1-0.6,0.3-0.6,0.7l-0.4-0.1H254v0.1c0.1,0,0.2,0.1,0.3,0.1c-0.1,0.9-0.5,1.7-1.2,2.2c-0.3,0.2-0.5,0.6-0.6,1h-0.3V120
		c0.3-1.4,0.9-2.7,1.5-3.9l2.2-4.7l1.4-3.3c0.5-1.1,0.8-2.3,1.1-3.5v-0.8c-0.4,0-0.5-0.1-0.5-0.2c0.1,0,0.1-0.1,0.1-0.1h-0.2
		c0,0.3-0.2,0.5-0.4,0.7l-0.5-0.1c-0.1,0.3-0.3,0.6-0.8,0.7v0.3h-0.1l-0.2-0.1c0,0.6-0.4,0.9-1.3,0.9v0.1h0.4v0.3h-0.3l-0.3-0.2
		h-0.1c0,0.2-0.1,0.5-0.2,0.6c0.1,0.1,0.1,0.2,0.1,0.4h-0.1l-0.3-0.3c-0.1,0-0.3,0.2-0.6,0.7c-0.2,0-0.5,0.3-0.7,0.8h0.2
		c0-0.3,0.1-0.4,0.4-0.4v0.1c0,0.2-0.3,0.4-1,0.5c-0.2,0.6-0.5,0.9-0.8,0.9l0.1,0.3v0.4c0,0.2-0.1,0.3-0.2,0.3h-0.1v-0.4
		c-0.5,0.5-1,1.1-1.4,1.7h0.4v0.1c-0.5,0.9-1.1,1.7-1.9,2.4h-0.1l0.2-0.4v-0.1H248c-0.4,0.3-0.6,0.7-0.7,1.2c0.2,0,0.3,0.1,0.3,0.3
		c-1.5,2.1-2.9,4.2-4.2,6.4l-0.7,0.3c-0.9-0.5-1.3-1-1.3-1.4c0.8-2,2.2-5.4,4.2-10.1c0.5-1,1.4-3.4,2.8-7l0.3-0.3
		c0.1,0,0.5,0.3,1.1,1v0.4c-1.1,3.1-2.3,6.1-3.7,9.1v0.5c0.2,0,1.1-1.2,2.9-3.5c0.1,0,0.3-0.3,0.7-0.9c0.6-0.8,1.3-1.6,2.2-2.2
		c0.4-0.6,0.9-1.1,1.4-1.6c0.2-0.5,1.2-1.4,3.1-2.8C256.9,102.6,257.5,102.4,258.1,102.3z M245.8,114.3v0.1c0.1,0,0.2-0.1,0.3-0.4
		H246C245.8,114.1,245.7,114.2,245.8,114.3L245.8,114.3z M249.1,112v0.1c0.3-0.1,0.4-0.3,0.4-0.4h-0.2
		C249.2,111.7,249.1,111.9,249.1,112C249.1,112,249.1,112,249.1,112L249.1,112z M254.4,106.4l0.1,0.3l-0.2,0.1l-0.1-0.3L254.4,106.4
		z M254.6,117.3h0.1v0.3c0,0.2-0.1,0.3-0.2,0.3l-0.1-0.3C254.4,117.4,254.5,117.3,254.6,117.3L254.6,117.3z M255.6,114.7h0.1
		c0.1,0,0.2-0.3,0.3-0.9h-0.1C255.7,113.8,255.6,114.1,255.6,114.7L255.6,114.7z M258.1,109.1v0.1c0.1,0,0.2-0.1,0.3-0.4h-0.1
		C258.2,108.8,258.1,108.9,258.1,109.1C258.1,109.1,258.1,109.1,258.1,109.1L258.1,109.1z"/>
	<path class="st2" d="M62.4,26.4C24,47.5-0.2,79.6,0.5,114.9C1.8,175.8,77,223.4,168.5,221.1S333,167.7,331.7,106.8
		S255.1-1.6,163.7,0.6l0.2,22.6c79.6-1.9,145,35.7,146.1,84.1s-62.7,89.2-142.3,91.1s-145-35.7-146.1-84.1
		c-0.5-24,14.9-46.1,40.3-62.6"/>
	<path class="st2" d="M163.9,23.2c0,0-9.9-0.3-10.6-11.1C153.5-2.2,166,0.8,166,0.8L163.9,23.2z"/>
</g>
</svg>
